<svg width="275" height="214" viewBox="0 0 275 214" fill="none" xmlns="http://www.w3.org/2000/svg">
<g clip-path="url(#clip0_2007_2)">
<path d="M263.806 95.588C254.226 177.364 207.422 207.421 138.531 212.243C69.6257 217.064 19.4692 195.549 14.3235 113.035C9.16419 30.5208 -25.2679 3.11256 43.7742 1.40408C132.222 -0.825638 271.004 34.2273 263.806 95.588Z" fill="#E9EC6B" stroke="#25092C" stroke-width="1.42343"/>
<path d="M272.457 178.16C272.772 183.329 273.839 186.413 270.952 181.012C267.667 174.859 257.718 177.74 257.403 172.571C257.075 167.402 262.617 162.798 269.788 162.291C276.959 161.799 272.129 172.991 272.457 178.16Z" fill="#E9EC6B" stroke="#25092C" stroke-width="1.42343"/>
<g clip-path="url(#clip1_2007_2)">
<path d="M133.102 108.543C132.021 117.237 126.742 120.433 118.972 120.946C111.2 121.458 105.543 119.171 104.962 110.398C104.38 101.625 100.497 98.7104 108.284 98.5287C118.26 98.2917 133.914 102.019 133.102 108.543Z" stroke="#25092C" stroke-width="1.42343"/>
<path d="M136.502 109.666L139.356 118.518C139.356 118.518 148.567 112.057 143.79 109.851" stroke="#25092C" stroke-width="1.42343"/>
<path d="M155.905 115.496C155.638 117.704 154.326 118.513 152.394 118.641C150.459 118.767 149.052 118.185 148.905 115.958C148.757 113.73 147.789 112.99 149.726 112.945C152.208 112.89 156.104 113.841 155.905 115.496Z" stroke="#25092C" stroke-width="1.42343"/>
<path d="M162.276 117.322C162.311 117.871 162.432 118.199 162.106 117.625C161.735 116.971 160.613 117.277 160.578 116.728C160.541 116.178 161.166 115.688 161.975 115.635C162.784 115.582 162.239 116.772 162.276 117.322Z" fill="black" stroke="#25092C" stroke-width="1.42343"/>
<path d="M155.487 116.959C160.01 108.196 154.417 92.3218 154.417 92.3218" stroke="#25092C" stroke-width="1.42343"/>
<path d="M103.698 102.804L108.282 98.5271" stroke="#25092C" stroke-width="1.42343"/>
<path d="M104.363 105.944L111.501 98.578" stroke="#25092C" stroke-width="1.42343"/>
<path d="M104.962 110.398C114.151 98.7842 117.374 99.2137 117.374 99.2137" stroke="#25092C" stroke-width="1.42343"/>
<path d="M105.455 113.556L120.563 99.8341" stroke="#25092C" stroke-width="1.42343"/>
<path d="M107.322 117.399L124.398 100.887" stroke="#25092C" stroke-width="1.42343"/>
<path d="M110.01 119.588L127.244 101.974" stroke="#25092C" stroke-width="1.42343"/>
<path d="M114.046 120.819L130.833 104.078" stroke="#25092C" stroke-width="1.42343"/>
<path d="M118.972 120.946L132.977 106.979" stroke="#25092C" stroke-width="1.42343"/>
<path d="M125.512 119.579C130.933 110.211 132.45 111.732 132.45 111.732" stroke="#25092C" stroke-width="1.42343"/>
<path d="M148.904 115.958L152.661 113.253" stroke="#25092C" stroke-width="1.42343"/>
<path d="M152.394 118.641L155.905 115.496" stroke="#25092C" stroke-width="1.42343"/>
<path d="M149.816 118.062L154.481 113.844" stroke="#25092C" stroke-width="1.42343"/>
<path d="M149.049 116.835L153.48 113.469" stroke="#25092C" stroke-width="1.42343"/>
<path d="M151.077 118.592L155.252 114.295" stroke="#25092C" stroke-width="1.42343"/>
<path d="M103.893 103.733L109.187 98.5164" stroke="#25092C" stroke-width="1.42343"/>
<path d="M104.068 104.536L110.079 98.5256" stroke="#25092C" stroke-width="1.42343"/>
<path d="M104.559 107.019L112.319 98.6288" stroke="#25092C" stroke-width="1.42343"/>
<path d="M104.731 108.13L113.372 98.7087" stroke="#25092C" stroke-width="1.42343"/>
<path d="M105.083 111.637L118.022 99.323" stroke="#25092C" stroke-width="1.42343"/>
<path d="M106.092 115.376L122.099 100.21" stroke="#25092C" stroke-width="1.42343"/>
<path d="M108.562 118.638L125.694 101.341" stroke="#25092C" stroke-width="1.42343"/>
<path d="M111.513 120.23C124.844 106.948 128.991 102.848 128.991 102.848" stroke="#25092C" stroke-width="1.42343"/>
<path d="M117.149 121.013L132.139 106.066" stroke="#25092C" stroke-width="1.42343"/>
<path d="M115.676 120.978L131.759 104.937" stroke="#25092C" stroke-width="1.42343"/>
<path d="M121.045 120.735L133.077 108.735" stroke="#25092C" stroke-width="1.42343"/>
</g>
</g>
<defs>
<clipPath id="clip0_2007_2">
<rect width="275" height="214" fill="white"/>
</clipPath>
<clipPath id="clip1_2007_2">
<rect width="62" height="30" fill="white" transform="translate(102 92)"/>
</clipPath>
</defs>
</svg>
